<mxfile host="app.diagrams.net" modified="2023-06-11T03:49:05.058Z" agent="Mozilla/5.0 (Macintosh; Intel Mac OS X 10_15_7) AppleWebKit/537.36 (KHTML, like Gecko) Chrome/114.0.0.0 Safari/537.36" etag="WbFQZjlGyhNa9jGqDRN7" version="21.3.8" type="github">
  <diagram name="第 1 页" id="QMp-mZkDWAPbplQzlCqC">
    <mxGraphModel dx="889" dy="562" grid="1" gridSize="10" guides="1" tooltips="1" connect="1" arrows="1" fold="1" page="1" pageScale="1" pageWidth="980" pageHeight="1390" math="0" shadow="0">
      <root>
        <mxCell id="0" />
        <mxCell id="1" parent="0" />
        <mxCell id="BSre7XC-ycvY8-_rlIfE-1" value="" style="rounded=0;whiteSpace=wrap;html=1;" vertex="1" parent="1">
          <mxGeometry x="100" y="250" width="470" height="250" as="geometry" />
        </mxCell>
        <mxCell id="BSre7XC-ycvY8-_rlIfE-2" value="&lt;b&gt;JVM简化架构图&lt;/b&gt;" style="text;html=1;strokeColor=none;fillColor=none;align=center;verticalAlign=middle;whiteSpace=wrap;rounded=0;" vertex="1" parent="1">
          <mxGeometry x="100" y="90" width="140" height="30" as="geometry" />
        </mxCell>
        <mxCell id="BSre7XC-ycvY8-_rlIfE-5" value="" style="edgeStyle=orthogonalEdgeStyle;rounded=0;orthogonalLoop=1;jettySize=auto;html=1;" edge="1" parent="1" source="BSre7XC-ycvY8-_rlIfE-3" target="BSre7XC-ycvY8-_rlIfE-4">
          <mxGeometry relative="1" as="geometry" />
        </mxCell>
        <mxCell id="BSre7XC-ycvY8-_rlIfE-3" value="class文件" style="text;html=1;strokeColor=none;fillColor=none;align=center;verticalAlign=middle;whiteSpace=wrap;rounded=0;" vertex="1" parent="1">
          <mxGeometry x="180" y="135" width="60" height="30" as="geometry" />
        </mxCell>
        <mxCell id="BSre7XC-ycvY8-_rlIfE-4" value="类装载器" style="whiteSpace=wrap;html=1;" vertex="1" parent="1">
          <mxGeometry x="360" y="120" width="120" height="60" as="geometry" />
        </mxCell>
        <mxCell id="BSre7XC-ycvY8-_rlIfE-6" value="" style="shape=flexArrow;endArrow=classic;startArrow=classic;html=1;rounded=0;" edge="1" parent="1">
          <mxGeometry width="100" height="100" relative="1" as="geometry">
            <mxPoint x="420" y="250" as="sourcePoint" />
            <mxPoint x="419.5" y="180" as="targetPoint" />
          </mxGeometry>
        </mxCell>
        <mxCell id="BSre7XC-ycvY8-_rlIfE-7" value="内存区域" style="text;html=1;strokeColor=none;fillColor=none;align=center;verticalAlign=middle;whiteSpace=wrap;rounded=0;" vertex="1" parent="1">
          <mxGeometry x="305" y="260" width="60" height="30" as="geometry" />
        </mxCell>
        <mxCell id="BSre7XC-ycvY8-_rlIfE-8" value="方法区" style="rounded=1;whiteSpace=wrap;html=1;" vertex="1" parent="1">
          <mxGeometry x="130" y="290" width="120" height="60" as="geometry" />
        </mxCell>
        <mxCell id="BSre7XC-ycvY8-_rlIfE-10" value="虚拟机栈" style="rounded=1;whiteSpace=wrap;html=1;" vertex="1" parent="1">
          <mxGeometry x="270" y="290" width="120" height="60" as="geometry" />
        </mxCell>
        <mxCell id="BSre7XC-ycvY8-_rlIfE-11" value="本地方法栈" style="rounded=1;whiteSpace=wrap;html=1;" vertex="1" parent="1">
          <mxGeometry x="410" y="290" width="120" height="60" as="geometry" />
        </mxCell>
        <mxCell id="BSre7XC-ycvY8-_rlIfE-12" value="堆" style="rounded=1;whiteSpace=wrap;html=1;" vertex="1" parent="1">
          <mxGeometry x="130" y="370" width="120" height="60" as="geometry" />
        </mxCell>
        <mxCell id="BSre7XC-ycvY8-_rlIfE-13" value="程序计数器" style="rounded=1;whiteSpace=wrap;html=1;" vertex="1" parent="1">
          <mxGeometry x="275" y="370" width="255" height="60" as="geometry" />
        </mxCell>
        <mxCell id="BSre7XC-ycvY8-_rlIfE-14" value="运行时数据区" style="text;html=1;strokeColor=none;fillColor=none;align=center;verticalAlign=middle;whiteSpace=wrap;rounded=0;" vertex="1" parent="1">
          <mxGeometry x="290" y="450" width="90" height="30" as="geometry" />
        </mxCell>
        <mxCell id="BSre7XC-ycvY8-_rlIfE-15" value="执行引擎" style="rounded=1;whiteSpace=wrap;html=1;" vertex="1" parent="1">
          <mxGeometry x="130" y="570" width="120" height="60" as="geometry" />
        </mxCell>
        <mxCell id="BSre7XC-ycvY8-_rlIfE-16" value="本地库接口" style="rounded=1;whiteSpace=wrap;html=1;" vertex="1" parent="1">
          <mxGeometry x="330" y="570" width="120" height="60" as="geometry" />
        </mxCell>
        <mxCell id="BSre7XC-ycvY8-_rlIfE-17" value="" style="shape=flexArrow;endArrow=classic;startArrow=classic;html=1;rounded=0;" edge="1" parent="1">
          <mxGeometry width="100" height="100" relative="1" as="geometry">
            <mxPoint x="200.5" y="570" as="sourcePoint" />
            <mxPoint x="200" y="500" as="targetPoint" />
          </mxGeometry>
        </mxCell>
        <mxCell id="BSre7XC-ycvY8-_rlIfE-18" value="" style="shape=flexArrow;endArrow=classic;startArrow=classic;html=1;rounded=0;" edge="1" parent="1">
          <mxGeometry width="100" height="100" relative="1" as="geometry">
            <mxPoint x="390" y="570" as="sourcePoint" />
            <mxPoint x="389.5" y="500" as="targetPoint" />
          </mxGeometry>
        </mxCell>
        <mxCell id="BSre7XC-ycvY8-_rlIfE-19" value="" style="shape=flexArrow;endArrow=classic;html=1;rounded=0;" edge="1" parent="1">
          <mxGeometry width="50" height="50" relative="1" as="geometry">
            <mxPoint x="255" y="600" as="sourcePoint" />
            <mxPoint x="320" y="600" as="targetPoint" />
          </mxGeometry>
        </mxCell>
        <mxCell id="BSre7XC-ycvY8-_rlIfE-20" value="" style="shape=flexArrow;endArrow=classic;html=1;rounded=0;" edge="1" parent="1">
          <mxGeometry width="50" height="50" relative="1" as="geometry">
            <mxPoint x="458" y="599.5" as="sourcePoint" />
            <mxPoint x="523" y="599.5" as="targetPoint" />
          </mxGeometry>
        </mxCell>
        <mxCell id="BSre7XC-ycvY8-_rlIfE-21" value="本地方法库" style="text;html=1;strokeColor=none;fillColor=none;align=center;verticalAlign=middle;whiteSpace=wrap;rounded=0;" vertex="1" parent="1">
          <mxGeometry x="540" y="585" width="70" height="30" as="geometry" />
        </mxCell>
        <mxCell id="BSre7XC-ycvY8-_rlIfE-22" value="" style="shape=flexArrow;endArrow=classic;html=1;rounded=0;" edge="1" parent="1">
          <mxGeometry width="50" height="50" relative="1" as="geometry">
            <mxPoint x="570" y="374.5" as="sourcePoint" />
            <mxPoint x="635" y="374.5" as="targetPoint" />
          </mxGeometry>
        </mxCell>
        <mxCell id="BSre7XC-ycvY8-_rlIfE-23" value="垃圾收集器" style="rounded=0;whiteSpace=wrap;html=1;" vertex="1" parent="1">
          <mxGeometry x="660" y="345" width="120" height="60" as="geometry" />
        </mxCell>
      </root>
    </mxGraphModel>
  </diagram>
</mxfile>
